<?xml version="1.0" encoding="UTF-8" standalone="no"?>
<svg
   xmlns:dc="http://purl.org/dc/elements/1.1/"
   xmlns:cc="http://creativecommons.org/ns#"
   xmlns:rdf="http://www.w3.org/1999/02/22-rdf-syntax-ns#"
   xmlns:svg="http://www.w3.org/2000/svg"
   xmlns="http://www.w3.org/2000/svg"
   viewBox="0 0 2560 1440"
   height="1440"
   width="2560"
   xml:space="preserve"
   id="svg2"
   version="1.1"><metadata
     id="metadata8"><rdf:RDF><cc:Work
         rdf:about=""><dc:format>image/svg+xml</dc:format><dc:type
           rdf:resource="http://purl.org/dc/dcmitype/StillImage" /></cc:Work></rdf:RDF></metadata><defs
     id="defs6"><clipPath
       id="clipPath22"
       clipPathUnits="userSpaceOnUse"><path
         id="path20"
         d="M 0,1080 H 1920 V 0 H 0 Z" /></clipPath></defs><g
     transform="matrix(1.3333333,0,0,-1.3333333,0,1440)"
     id="g10"><g
       transform="translate(411.0059,351.8789)"
       id="g12"><path
         id="path14"
         style="fill:#f59222;fill-opacity:1;fill-rule:nonzero;stroke:none"
         d="M 0,0 22.636,79.4 -42.67,0 H -73.631 L -94.706,79.4 -117.342,0 h -32.783 l 37.207,130.789 h 42.669 L -47.353,39.797 28.62,130.789 H 69.728 L 32.522,0 Z" /></g><g
       id="g16"><g
         clip-path="url(#clipPath22)"
         id="g18"><g
           transform="translate(471.3667,351.8789)"
           id="g24"><path
             id="path26"
             style="fill:#f59222;fill-opacity:1;fill-rule:nonzero;stroke:none"
             d="m 0,0 7.285,25.501 h 93.925 c 3.123,0 5.419,0.45 6.895,1.353 1.472,0.899 2.557,2.574 3.252,5.022 l 5.204,18.16 c 0.171,0.513 0.26,1.223 0.26,2.125 0,2.318 -2.256,3.478 -6.764,3.478 H 40.588 c -7.114,0 -12.273,1.126 -15.481,3.381 -3.211,2.251 -4.813,5.439 -4.813,9.562 0,1.546 0.26,3.411 0.781,5.603 l 9.627,33.808 c 2.252,7.728 6.069,13.456 11.447,17.194 5.375,3.734 13.79,5.602 25.238,5.602 h 109.536 l -7.025,-24.921 H 76.493 c -2.776,0 -4.772,-0.453 -5.984,-1.352 -1.216,-0.903 -2.171,-2.512 -2.862,-4.83 L 62.704,82.492 c -0.175,-0.516 -0.305,-0.967 -0.391,-1.352 -0.089,-0.387 -0.13,-0.773 -0.13,-1.16 0,-1.931 1.907,-2.898 5.724,-2.898 h 70.509 c 7.285,0 12.53,-1.158 15.741,-3.477 3.208,-2.318 4.814,-5.539 4.814,-9.66 0,-1.674 -0.261,-3.477 -0.781,-5.409 L 148.043,22.796 C 145.787,15.068 141.969,9.337 136.595,5.603 131.217,1.865 122.891,0 111.618,0 Z" /></g><g
           transform="translate(760.1665,402.3018)"
           id="g28"><path
             id="path30"
             style="fill:#f59222;fill-opacity:1;fill-rule:nonzero;stroke:none"
             d="m 0,0 c 0.17,0.643 0.301,1.222 0.39,1.738 0.086,0.513 0.13,0.966 0.13,1.353 0,1.672 -0.695,2.767 -2.081,3.284 -1.391,0.513 -3.557,0.772 -6.505,0.772 h -55.679 l -9.106,-31.876 h 55.679 c 3.988,0 6.805,0.483 8.456,1.45 1.646,0.966 2.903,2.994 3.773,6.085 z m -119.683,-50.423 27.579,97.174 h 39.547 l -5.984,-21.058 h 55.159 c 3.813,0 6.459,0.451 7.935,1.353 1.472,0.899 2.557,2.445 3.252,4.637 l 4.424,15.841 c 0.52,1.286 0.78,2.445 0.78,3.478 0,1.545 -0.61,2.607 -1.821,3.187 -1.216,0.58 -3.297,0.87 -6.245,0.87 h -94.445 l 7.024,25.307 H 29.661 c 9.016,0 15.521,-1.192 19.513,-3.574 3.988,-2.385 5.984,-6.021 5.984,-10.915 0,-1.159 -0.13,-2.385 -0.39,-3.671 -0.26,-1.288 -0.565,-2.641 -0.911,-4.057 L 46.833,33.614 c -1.562,-5.409 -4.338,-9.369 -8.327,-11.881 -3.991,-2.511 -9.02,-4.026 -15.09,-4.54 5.029,-0.386 9.147,-1.352 12.359,-2.897 3.207,-1.546 4.813,-4.058 4.813,-7.535 0,-0.646 -0.045,-1.288 -0.13,-1.932 C 40.369,4.184 40.238,3.54 40.068,2.897 L 31.222,-28.206 C 29.14,-35.677 25.368,-41.246 19.904,-44.917 14.44,-48.588 6.155,-50.423 -4.943,-50.423 Z" /></g><g
           transform="translate(1034.3906,351.8789)"
           id="g32"><path
             id="path34"
             style="fill:#f59222;fill-opacity:1;fill-rule:nonzero;stroke:none"
             d="M 0,0 22.635,79.4 -42.67,0 H -73.632 L -94.707,79.4 -117.342,0 h -32.783 l 37.206,130.789 h 42.669 l 22.896,-90.992 75.973,90.992 h 41.11 L 32.521,0 Z" /></g><g
           transform="translate(1193.8799,456.3945)"
           id="g36"><path
             id="path38"
             style="fill:#f59222;fill-opacity:1;fill-rule:nonzero;stroke:none"
             d="M 0,0 -42.67,-62.594 H 5.464 Z M 8.586,-104.516 6.765,-84.23 H -56.72 l -13.529,-20.286 h -38.246 l 91.583,130.789 h 51.776 l 13.53,-130.789 z" /></g><g
           transform="translate(1376.7842,351.8789)"
           id="g40"><path
             id="path42"
             style="fill:#f59222;fill-opacity:1;fill-rule:nonzero;stroke:none"
             d="m 0,0 13.269,46.559 c 0.52,1.931 0.781,3.477 0.781,4.636 0,1.802 -0.74,2.994 -2.212,3.575 -1.476,0.579 -4.122,0.869 -7.936,0.869 h -57.759 l 3.641,13.33 81.177,61.82 h 43.19 L 2.081,77.275 h 28.1 c 17.517,0 26.278,-5.732 26.278,-17.193 0,-2.835 -0.521,-5.989 -1.562,-9.467 L 40.588,0 Z m -115.781,0 37.206,130.789 h 39.548 L -76.233,0 Z" /></g><g
           transform="translate(1489.7002,494.2598)"
           id="g44"><path
             id="path46"
             style="fill:#f59222;fill-opacity:1;fill-rule:nonzero;stroke:none"
             d="M 0,0 8.326,29.364 H 41.108 L 32.782,0 Z M -44.23,-142.381 -7.025,-11.592 H 32.522 L -4.684,-142.381 Z" /></g><g
           transform="translate(1642.4238,351.8789)"
           id="g48"><path
             id="path50"
             style="fill:#f59222;fill-opacity:1;fill-rule:nonzero;stroke:none"
             d="M 0,0 -66.606,85.776 -91.063,0 h -36.686 l 37.206,130.789 h 37.206 L 4.423,52.74 26.538,130.789 H 63.483 L 26.278,0 Z" /></g><g
           transform="translate(1796.1875,456.3945)"
           id="g52"><path
             id="path54"
             style="fill:#f59222;fill-opacity:1;fill-rule:nonzero;stroke:none"
             d="M 0,0 -42.67,-62.594 H 5.464 Z M 8.586,-104.516 6.765,-84.23 H -56.72 l -13.529,-20.286 h -38.246 l 91.583,130.789 h 51.776 l 13.53,-130.789 z" /></g><g
           transform="translate(174.1649,387.7549)"
           id="g56"><path
             id="path58"
             style="fill:#f59222;fill-opacity:1;fill-rule:nonzero;stroke:none"
             d="m 0,0 c 0,79.349 63.46,143.674 141.743,143.674 23.343,0 45.367,-5.723 64.785,-15.855 -22.405,16.231 -49.841,25.785 -79.48,25.785 -75.577,0 -136.845,-62.102 -136.845,-138.709 0,-30.043 9.426,-57.853 25.439,-80.563 C 5.646,-45.986 0,-23.662 0,0" /></g><g
           transform="translate(315.5097,276.2068)"
           id="g60"><path
             id="path62"
             style="fill:#f05b2a;fill-opacity:1;fill-rule:nonzero;stroke:none"
             d="m 0,0 c -68.095,2.86 -121.009,61.132 -118.188,130.154 0.841,20.582 6.546,39.795 15.941,56.55 -14.736,-19.17 -23.924,-43.016 -24.992,-69.149 C -129.963,50.918 -78.877,-5.34 -13.135,-8.101 12.646,-9.184 36.852,-1.875 56.918,11.425 39.667,3.321 20.306,-0.853 0,0" /></g><g
           transform="translate(239.7586,480.6603)"
           id="g64"><path
             id="path66"
             style="fill:#f59222;fill-opacity:1;fill-rule:nonzero;stroke:none"
             d="m 0,0 c 13.171,-4.008 20.502,-18.551 20.502,-18.551 0,0 -14.022,-8.045 -27.192,-4.036 -13.171,4.008 -20.503,18.551 -20.503,18.551 0,0 14.022,8.044 27.193,4.036" /></g><g
           transform="translate(258.6981,501.6714)"
           id="g68"><path
             id="path70"
             style="fill:#f59222;fill-opacity:1;fill-rule:nonzero;stroke:none"
             d="m 0,0 c 11.646,-3.153 18.455,-15.695 18.455,-15.695 0,0 -12.072,-7.43 -23.718,-4.277 -11.645,3.153 -18.455,15.695 -18.455,15.695 0,0 12.072,7.43 23.718,4.277" /></g><g
           transform="translate(287.6927,517.002)"
           id="g72"><path
             id="path74"
             style="fill:#f59222;fill-opacity:1;fill-rule:nonzero;stroke:none"
             d="m 0,0 c 10.92,-3.975 16.455,-16.561 16.455,-16.561 0,0 -12.17,-6.141 -23.09,-2.166 -10.92,3.974 -16.454,16.56 -16.454,16.56 0,0 12.169,6.142 23.089,2.167" /></g><g
           transform="translate(317.9771,521.6985)"
           id="g76"><path
             id="path78"
             style="fill:#f59222;fill-opacity:1;fill-rule:nonzero;stroke:none"
             d="m 0,0 c 8.354,-5.318 10.688,-16.793 10.688,-16.793 0,0 -11.211,-2.853 -19.565,2.466 -8.354,5.318 -10.688,16.793 -10.688,16.793 0,0 11.211,2.852 19.565,-2.466" /></g><g
           transform="translate(347.7426,520.6633)"
           id="g80"><path
             id="path82"
             style="fill:#f59222;fill-opacity:1;fill-rule:nonzero;stroke:none"
             d="m 0,0 c 7.656,-4.874 9.795,-15.39 9.795,-15.39 0,0 -10.274,-2.614 -17.93,2.26 -7.656,4.874 -9.795,15.39 -9.795,15.39 0,0 10.274,2.614 17.93,-2.26" /></g><g
           transform="translate(372.5381,515.3443)"
           id="g84"><path
             id="path86"
             style="fill:#f59222;fill-opacity:1;fill-rule:nonzero;stroke:none"
             d="m 0,0 c 5.777,-4.849 6.414,-13.733 6.414,-13.733 0,0 -8.73,-1.024 -14.507,3.825 -5.778,4.848 -6.415,13.733 -6.415,13.733 0,0 8.73,1.024 14.508,-3.825" /></g><g
           transform="translate(208.2275,522.5876)"
           id="g88"><path
             id="path90"
             style="fill:#f59222;fill-opacity:1;fill-rule:nonzero;stroke:none"
             d="m 0,0 c 1.208,13.885 -9.402,26.177 -9.402,26.177 0,0 -12.567,-10.221 -13.775,-24.106 -1.208,-13.885 9.402,-26.176 9.402,-26.176 0,0 12.567,10.22 13.775,24.105" /></g><g
           transform="translate(238.2886,544.3263)"
           id="g92"><path
             id="path94"
             style="fill:#f59222;fill-opacity:1;fill-rule:nonzero;stroke:none"
             d="m 0,0 c 1.872,12.07 -6.685,23.459 -6.685,23.459 0,0 -11.59,-8.18 -13.462,-20.25 -1.871,-12.069 6.685,-23.459 6.685,-23.459 0,0 11.591,8.18 13.462,20.25" /></g><g
           transform="translate(266.5612,548.9435)"
           id="g96"><path
             id="path98"
             style="fill:#f59222;fill-opacity:1;fill-rule:nonzero;stroke:none"
             d="m 0,0 c 5.812,10.179 2.028,23.414 2.028,23.414 0,0 -13.207,-3.268 -19.019,-13.447 -5.811,-10.179 -2.028,-23.414 -2.028,-23.414 0,0 13.207,3.268 19.019,13.447" /></g><g
           transform="translate(296.9606,549.445)"
           id="g100"><path
             id="path102"
             style="fill:#f59222;fill-opacity:1;fill-rule:nonzero;stroke:none"
             d="m 0,0 c 7.578,7.292 7.635,19.702 7.635,19.702 0,0 -12.229,0.587 -19.807,-6.706 -7.578,-7.292 -7.636,-19.702 -7.636,-19.702 0,0 12.23,-0.586 19.808,6.706" /></g><g
           transform="translate(325.3795,552.6415)"
           id="g104"><path
             id="path106"
             style="fill:#f59222;fill-opacity:1;fill-rule:nonzero;stroke:none"
             d="m 0,0 c 5.661,7.145 4.286,17.791 4.286,17.791 0,0 -10.552,-0.938 -16.213,-8.083 -5.661,-7.146 -4.286,-17.792 -4.286,-17.792 0,0 10.552,0.939 16.213,8.084" /></g><g
           transform="translate(373.2187,531.7745)"
           id="g108"><path
             id="path110"
             style="fill:#f59222;fill-opacity:1;fill-rule:nonzero;stroke:none"
             d="m 0,0 c 7.912,2.253 12.446,10.864 12.446,10.864 0,0 -8.295,4.959 -16.207,2.705 -7.912,-2.253 -12.446,-10.864 -12.446,-10.864 0,0 8.295,-4.958 16.207,-2.705" /></g><g
           transform="translate(349.7836,542.351)"
           id="g112"><path
             id="path114"
             style="fill:#f59222;fill-opacity:1;fill-rule:nonzero;stroke:none"
             d="m 0,0 c 7.479,4.275 9.974,14.154 9.974,14.154 0,0 -9.631,2.948 -17.11,-1.327 -7.479,-4.275 -9.974,-14.154 -9.974,-14.154 0,0 9.631,-2.948 17.11,1.327" /></g><g
           transform="translate(395.201,512.5922)"
           id="g116"><path
             id="path118"
             style="fill:#f59222;fill-opacity:1;fill-rule:nonzero;stroke:none"
             d="m 0,0 c 5.777,-4.848 6.414,-13.733 6.414,-13.733 0,0 -8.73,-1.024 -14.507,3.825 -5.778,4.848 -6.415,13.733 -6.415,13.733 0,0 8.73,1.024 14.508,-3.825" /></g><g
           transform="translate(1275.9832,775.4757)"
           id="g120"><path
             id="path122"
             style="fill:#0047fc;fill-opacity:1;fill-rule:nonzero;stroke:none"
             d="m 0,0 c -15.677,-26.225 -30.195,-50.109 -44.083,-74.362 -1.414,-2.469 0.024,-7.699 1.726,-10.732 7.733,-13.782 16.053,-27.225 24.128,-40.811 18.097,-30.449 36.273,-60.849 54.214,-91.391 8.479,-14.434 32.762,-24.899 47.669,-20.074 26.679,8.634 36.902,36.266 22.167,61.397 -16.786,28.629 -34.137,56.918 -51.251,85.35 C 36.872,-61.221 19.165,-31.826 0,0 m -173.021,-113.257 c 12.786,-28.535 35.635,-49.692 40.56,-81.152 2.498,-15.957 -2.056,-29.072 -9.607,-41.655 -17.321,-28.863 -58.434,-40.394 -86.426,-22.789 -29.342,18.454 -43.41,53.6 -24.581,88.626 11.046,20.55 23.52,40.342 36.004,60.051 4.863,7.678 5.101,13.502 0.194,21.492 -25.883,42.144 -51.071,84.726 -76.627,127.078 -18.8,31.155 -54.095,31.136 -72.973,-0.145 -43.958,-72.838 -87.797,-145.75 -131.566,-218.706 -13.886,-23.146 -7.285,-47.176 14.477,-59.856 14.42,-8.402 44.291,0.069 53.11,15.338 14.592,25.263 29.698,50.221 44.684,75.248 17.28,28.856 34.658,57.653 52.032,86.451 0.761,1.261 1.907,2.282 4.055,4.798 7.698,-12.464 14.95,-24.02 22.018,-35.69 11.478,-18.95 22.567,-38.149 34.37,-56.888 5.174,-8.216 8.083,-15.598 2.787,-25.092 -2.589,-4.641 -2.8,-10.645 -4.809,-19.054 -9.905,16.308 -18.569,30.596 -27.257,44.868 -8.581,14.097 -17.187,28.178 -27.058,44.359 -4.012,-5.827 -7.033,-9.692 -9.506,-13.888 -22.686,-38.494 -44.887,-77.287 -68.058,-115.476 -11.521,-18.988 -29.034,-33.572 -50.806,-34.264 -48.264,-1.533 -87.146,36.898 -66.744,89.41 5.393,13.882 14.043,26.535 21.762,39.405 38.254,63.787 76.782,127.405 115.045,191.186 28.715,47.865 86.903,48.188 115.684,0.397 23.27,-38.639 46.363,-77.388 69.569,-116.067 1.392,-2.32 3.088,-4.453 5.737,-8.237 2.707,3.326 5.083,5.624 6.735,8.369 23.461,38.98 46.918,77.963 70.188,117.06 29.549,49.645 87.156,50.295 116.938,0.992 43.375,-71.806 86.544,-143.74 129.696,-215.684 15.074,-25.131 13.632,-54.205 -3.377,-75.871 -17.524,-22.32 -46.431,-32.246 -72.835,-20.842 -12.84,5.545 -25.49,16.477 -33.224,28.325 -24.785,37.969 -47.22,77.513 -70.61,116.42 -1.987,3.305 -4.333,6.389 -8.016,11.776 -18.861,-31.023 -36.727,-60.41 -55.404,-91.13 -3.42,10.406 -7.059,18.746 -8.618,27.468 -0.692,3.874 2.202,8.897 4.511,12.757 30.265,50.599 60.734,101.073 91.113,151.602 14.774,24.574 9.721,49.35 -12.459,61.517 -16.127,8.847 -33.467,6.507 -46.61,-6.289 -12.91,-12.568 -16.335,-30.827 -8.026,-46.963 5.249,-10.193 11.41,-19.915 17.383,-29.711 12.036,-19.739 12.053,-20.174 -4.698,-39.582 -12.325,20.369 -24.449,40.403 -37.404,61.813 -2.726,-3.362 -4.857,-5.437 -6.347,-7.909 -33.094,-54.91 -65.177,-110.478 -99.559,-164.544 -16.57,-26.058 -5.692,-59.375 25.871,-66.823 5.226,-1.233 11.942,-0.72 16.72,1.615 28.606,13.978 35.22,37.682 18.925,65.462 -4.004,6.827 -8.302,13.475 -12.364,20.268 -11.239,18.8 -11.124,19.799 5.401,40.156" /></g><g
           transform="translate(1089.4213,565.511)"
           id="g124"><path
             id="path126"
             style="fill:#f59222;fill-opacity:1;fill-rule:nonzero;stroke:none"
             d="m 0,0 c -6.109,-5.132 -15.426,-4.585 -20.817,1.287 -5.361,5.866 -4.766,14.765 1.362,19.892 6.103,5.157 15.425,4.585 20.797,-1.265 C 6.742,14.051 6.123,5.135 0,0 m 23.156,11.587 c -0.035,1.209 -0.156,2.405 -0.34,3.575 l -6.513,1.032 -2.208,5.892 4.34,4.757 c -1.316,2.095 -2.882,4.022 -4.653,5.756 l -5.904,-2.834 -5.414,3.52 0.585,6.297 c -2.245,0.906 -4.619,1.586 -7.084,1.995 l -3.068,-5.604 -6.548,-0.146 -3.362,5.448 c -2.517,-0.548 -4.923,-1.365 -7.18,-2.426 l 0.965,-6.254 -5.204,-3.806 -6.063,2.503 c -1.665,-1.822 -3.116,-3.829 -4.309,-5.994 l 4.614,-4.511 -1.858,-6 -6.445,-1.389 c -0.116,-1.241 -0.165,-2.51 -0.124,-3.799 0.046,-1.177 0.156,-2.33 0.323,-3.468 l 6.516,-1.05 2.187,-5.899 -4.369,-4.746 c 1.321,-2.096 2.88,-4.045 4.651,-5.784 l 5.916,2.817 5.403,-3.535 -0.612,-6.299 c 2.317,-0.937 4.761,-1.643 7.301,-2.058 l 3.051,5.616 6.547,0.174 3.374,-5.441 c 2.515,0.559 4.916,1.387 7.172,2.453 l -0.984,6.251 5.186,3.828 6.07,-2.488 c 1.665,1.835 3.113,3.845 4.296,6.008 l -4.642,4.493 1.836,6.018 6.449,1.398 c 0.104,1.22 0.148,2.456 0.102,3.7" /></g><g
           transform="translate(1225.4213,788.511)"
           id="g128"><path
             id="path130"
             style="fill:#f59222;fill-opacity:1;fill-rule:nonzero;stroke:none"
             d="m 0,0 c -6.109,-5.132 -15.426,-4.585 -20.817,1.287 -5.361,5.866 -4.766,14.765 1.362,19.892 6.103,5.157 15.425,4.585 20.797,-1.265 C 6.742,14.051 6.123,5.135 0,0 m 23.156,11.587 c -0.035,1.209 -0.156,2.405 -0.34,3.575 l -6.513,1.032 -2.208,5.892 4.34,4.757 c -1.316,2.095 -2.882,4.022 -4.653,5.756 l -5.904,-2.834 -5.414,3.52 0.585,6.297 c -2.245,0.906 -4.619,1.586 -7.084,1.995 l -3.068,-5.604 -6.548,-0.146 -3.362,5.448 c -2.517,-0.548 -4.923,-1.365 -7.18,-2.426 l 0.965,-6.254 -5.204,-3.806 -6.063,2.503 c -1.665,-1.822 -3.116,-3.829 -4.309,-5.994 l 4.614,-4.511 -1.858,-6 -6.445,-1.389 c -0.116,-1.241 -0.165,-2.51 -0.124,-3.799 0.046,-1.177 0.156,-2.33 0.323,-3.468 l 6.516,-1.05 2.187,-5.899 -4.369,-4.746 c 1.321,-2.096 2.88,-4.045 4.651,-5.784 l 5.916,2.817 5.403,-3.535 -0.612,-6.299 c 2.317,-0.937 4.761,-1.643 7.301,-2.058 l 3.051,5.616 6.547,0.174 3.374,-5.441 c 2.515,0.559 4.916,1.387 7.172,2.453 l -0.984,6.251 5.186,3.828 6.07,-2.488 c 1.665,1.835 3.113,3.845 4.296,6.008 l -4.642,4.493 1.836,6.018 6.449,1.398 c 0.104,1.22 0.148,2.456 0.102,3.7" /></g></g></g></g></svg>